<svg width="28" height="28" viewBox="0 0 28 28" fill="none" xmlns="http://www.w3.org/2000/svg" aria-hidden="true">
  <!-- petals -->
  <g opacity="0.98">
    <rect x="9" y="1" width="10" height="14" rx="5" fill="#79C6FF" transform="rotate(0 14 14)"/>
    <rect x="9" y="1" width="10" height="14" rx="5" fill="#5AAEFF" transform="rotate(45 14 14)"/>
    <rect x="9" y="1" width="10" height="14" rx="5" fill="#79C6FF" transform="rotate(90 14 14)"/>
    <rect x="9" y="1" width="10" height="14" rx="5" fill="#5AAEFF" transform="rotate(135 14 14)"/>
    <rect x="9" y="1" width="10" height="14" rx="5" fill="#79C6FF" transform="rotate(180 14 14)"/>
    <rect x="9" y="1" width="10" height="14" rx="5" fill="#5AAEFF" transform="rotate(225 14 14)"/>
    <rect x="9" y="1" width="10" height="14" rx="5" fill="#79C6FF" transform="rotate(270 14 14)"/>
    <rect x="9" y="1" width="10" height="14" rx="5" fill="#5AAEFF" transform="rotate(315 14 14)"/>
  </g>

  <!-- snowflake / asterisk -->
  <g stroke="#FFFFFF" stroke-width="2.6" stroke-linecap="round">
    <line x1="14" y1="14" x2="14" y2="5.2" />
    <line x1="14" y1="14" x2="14" y2="5.2" transform="rotate(60 14 14)" />
    <line x1="14" y1="14" x2="14" y2="5.2" transform="rotate(120 14 14)" />
    <line x1="14" y1="14" x2="14" y2="5.2" transform="rotate(180 14 14)" />
    <line x1="14" y1="14" x2="14" y2="5.2" transform="rotate(240 14 14)" />
    <line x1="14" y1="14" x2="14" y2="5.2" transform="rotate(300 14 14)" />
  </g>
</svg>
